<svg width="1002" height="916" viewBox="0 0 1002 916" fill="none" xmlns="http://www.w3.org/2000/svg">
<path fill-rule="evenodd" clip-rule="evenodd" d="M0 915.752L0 901.12H49.556C63.9716 901.12 77.5265 899 90.2263 894.767L90.2345 894.764L90.2428 894.762C103.706 890.555 115.941 882.131 126.944 869.436C137.922 856.769 147.261 838.128 154.921 813.445L154.923 813.438L413.686 0L608.286 0L893.934 815.954C893.935 815.957 893.936 815.96 893.937 815.963C901.59 836.37 910.503 852.91 920.661 865.611C930.822 877.462 942.234 886.332 954.897 892.243C968.427 898.16 982.803 901.12 998.036 901.12H1001.51V915.752H537.6V901.12H589.716C609.278 901.12 622.627 897.709 630.047 891.13C637.512 883.654 641.28 873.669 641.28 861.076C641.28 855.191 640.439 849.302 638.755 843.408L638.736 843.34L638.727 843.27C637.878 836.48 636.605 829.69 634.907 822.898L634.904 822.886L634.902 822.875C633.202 815.226 631.077 807.577 628.527 799.926L628.524 799.918L628.522 799.91L559.604 580.392L244.786 580.392L182.271 776.865C182.271 776.867 182.27 776.869 182.27 776.87C178.858 787.959 175.445 798.623 172.033 808.862C169.481 818.222 167.355 827.153 165.654 835.656C163.958 844.138 163.112 852.184 163.112 859.796C163.112 873.261 166.891 883.664 174.345 891.13C181.768 897.713 194.699 901.12 213.396 901.12H305.192V915.752H0ZM173.716 891.796C166.036 884.116 162.196 873.449 162.196 859.796C162.196 852.116 163.049 844.009 164.756 835.476C166.463 826.943 168.596 817.983 171.156 808.596C174.569 798.356 177.983 787.689 181.396 776.596L244.116 579.476L560.276 579.476L629.396 799.636C631.956 807.316 634.089 814.996 635.796 822.676C637.503 829.503 638.783 836.329 639.636 843.156C641.343 849.129 642.196 855.103 642.196 861.076C642.196 873.876 638.356 884.116 630.676 891.796C622.996 898.623 609.343 902.036 589.716 902.036H538.516V914.836H1000.6V902.036H998.036C982.676 902.036 968.169 899.049 954.516 893.076C941.716 887.103 930.196 878.143 919.956 866.196C909.716 853.396 900.756 836.756 893.076 816.276L607.636 0.915955L414.356 0.915955L155.796 813.716C148.116 838.463 138.729 857.236 127.636 870.036C116.543 882.836 104.169 891.369 90.516 895.636C77.716 899.903 64.0626 902.036 49.556 902.036H0.91596L0.91596 914.836H304.276V902.036H213.396C194.623 902.036 181.396 898.623 173.716 891.796ZM465.963 285.354L465.963 285.352C460.842 269.136 454.441 248.655 446.761 223.907L446.757 223.894L446.753 223.88C439.927 199.137 432.675 173.541 424.996 147.091L424.994 147.084C417.654 120.985 410.704 96.8357 404.143 74.6365C400.106 89.1381 395.697 104.755 390.917 121.488L390.913 121.499C385.79 138.575 380.241 156.077 374.265 174.006C368.294 191.917 362.324 210.256 356.353 229.021C351.231 246.947 345.682 264.874 339.707 282.8C339.706 282.802 339.706 282.804 339.705 282.806L249.211 565.76L555.183 565.76L465.963 285.354ZM556.436 566.676L247.956 566.676L338.836 282.516C344.809 264.596 350.356 246.676 355.476 228.756C361.449 209.983 367.423 191.636 373.396 173.716C379.369 155.796 384.916 138.303 390.036 121.236C394.972 103.961 399.511 87.8759 403.653 72.9801C403.808 72.4237 403.962 71.869 404.116 71.316C404.279 71.8668 404.443 72.4189 404.606 72.9722C411.29 95.5609 418.38 120.182 425.876 146.836C433.556 173.289 440.809 198.889 447.636 223.636C455.316 248.383 461.716 268.863 466.836 285.076L556.436 566.676Z" fill="white"/>
</svg>
