<svg width="33" height="32" viewBox="0 0 33 32" fill="none" xmlns="http://www.w3.org/2000/svg">
<path d="M5.59409 22.8843C7.97555 23.0183 10.0581 22.4616 12.089 20.9874C10.0374 20.6368 8.61474 19.6987 7.84154 17.7605C8.43948 17.678 8.96526 17.8327 9.58383 17.5853C7.56319 16.6986 6.25389 15.3687 6.20234 13.0697C6.84152 13.1213 7.32607 13.544 8.08897 13.4821C6.23328 11.6677 5.66625 9.68826 6.83121 7.28617C8.76938 9.513 11.0375 11.0285 13.8107 11.7398C13.9653 11.7811 14.1096 11.8223 14.2643 11.8532C14.9756 12.0182 15.821 12.3687 16.254 12.3172C16.9963 12.2244 16.254 11.3687 16.4396 10.2553C17.0272 6.79132 20.8417 5.21399 23.6665 7.24494C24.4912 7.84288 25.1407 7.83257 25.9551 7.47174C26.3778 7.28617 26.8108 7.1006 27.316 6.88411C27.2026 7.87381 26.4397 8.42021 25.8314 9.15217C26.5222 9.30681 27.0788 9.11094 27.718 8.90475C27.5015 9.6161 26.9654 10.0182 26.4809 10.4099C25.9757 10.812 25.7799 11.2347 25.7592 11.8945C25.45 21.8843 14.0993 29.606 6.33637 23.4616C5.58378 22.8637 6.31574 23.4616 5.59409 22.8843Z" fill="white"/>
</svg>
